PathFileType	4	(X/Y/Z)	 1.8Hz3min.trc
DataRate	CameraRate	NumFrames	NumMarkers	Units	OrigDataRate	OrigDataStartFrame	OrigNumFrames
200	200	8	43	m	200	876	1000
Frame#	Time	C7			LSH			RSH			MAN			RASI			LASI			HIPR			HIPL			RPSI			LPSI			COX			RTHI1			RTHI2			RTHI3			RTHI4			RLKN			RMKN			RSHA1			RSHA2			RSHA3			RSHA4			RLMAL			RMMAL			RHEEL			RMET5			RMET1			RTOE			LTHI1			LTHI2			LTHI3			LTHI4			LLKN			LMKN			LSHA1			LSHA2			LSHA3			LSHA4			LLMAL			LMMAL			LHEEL			LMET5			LMET1			LTOE			
		X1	Y1	Z1	X2	Y2	Z2	X3	Y3	Z3	X4	Y4	Z4	X5	Y5	Z5	X6	Y6	Z6	X7	Y7	Z7	X8	Y8	Z8	X9	Y9	Z9	X10	Y10	Z10	X11	Y11	Z11	X12	Y12	Z12	X13	Y13	Z13	X14	Y14	Z14	X15	Y15	Z15	X16	Y16	Z16	X17	Y17	Z17	X18	Y18	Z18	X19	Y19	Z19	X20	Y20	Z20	X21	Y21	Z21	X22	Y22	Z22	X23	Y23	Z23	X24	Y24	Z24	X25	Y25	Z25	X26	Y26	Z26	X27	Y27	Z27	X28	Y28	Z28	X29	Y29	Z29	X30	Y30	Z30	X31	Y31	Z31	X32	Y32	Z32	X33	Y33	Z33	X34	Y34	Z34	X35	Y35	Z35	X36	Y36	Z36	X37	Y37	Z37	X38	Y38	Z38	X39	Y39	Z39	X40	Y40	Z40	X41	Y41	Z41	X42	Y42	Z42	X43	Y43	Z43	
876	4.3800	-0.198799	1.565591	-0.547251	-0.144019	1.528136	-0.754848	-0.118165	1.504086	-0.348084	-0.078911	1.469738	-0.553568	-0.155722	1.025524	-0.437853	-0.159122	1.030481	-0.673146	-0.235376	1.086417	-0.388601	-0.239395	1.077225	-0.712226	-0.338244	1.078022	-0.502150	-0.332234	1.077737	-0.605501	-0.338504	1.076261	-0.553306	-0.228421	0.756699	-0.344501	-0.214941	0.698371	-0.340376	-0.151287	0.709412	-0.337031	-0.156562	0.770791	-0.340857	-0.184698	0.512335	-0.341177	-0.175245	0.494352	-0.471683	-0.282883	0.367442	-0.317876	-0.301350	0.328950	-0.322338	-0.243434	0.309431	-0.319706	-0.232252	0.347764	-0.320221	-0.343313	0.134685	-0.332931	-0.305500	0.132886	-0.420840	-0.400234	0.112079	-0.381027	-0.249966	0.036608	-0.308728	-0.201786	0.050035	-0.384150	-0.176051	0.038076	-0.375353	-0.231040	0.767956	-0.745683	-0.216386	0.708202	-0.747968	-0.152425	0.717863	-0.754738	-0.159692	0.777473	-0.753861	-0.186781	0.504024	-0.736358	-0.161886	0.495196	-0.611025	-0.280301	0.348466	-0.746892	-0.291820	0.305213	-0.740319	-0.240146	0.290415	-0.737560	-0.222809	0.327084	-0.743202	-0.326880	0.126250	-0.732677	-0.307306	0.128433	-0.641038	-0.395928	0.110798	-0.686142	-0.234199	0.034792	-0.745399	-0.201790	0.047102	-0.668444	-0.177896	0.033931	-0.667532	
877	4.3850	-0.198354	1.568238	-0.546931	-0.144026	1.530940	-0.754573	-0.117690	1.506655	-0.347896	-0.078613	1.472431	-0.553481	-0.155455	1.028113	-0.437944	-0.159069	1.033156	-0.673235	-0.234945	1.089581	-0.388630	-0.239512	1.080366	-0.711914	-0.337758	1.081049	-0.501995	-0.331830	1.080687	-0.605380	-0.338088	1.079279	-0.553165	-0.228406	0.759068	-0.344608	-0.215026	0.700712	-0.340614	-0.151345	0.711634	-0.337286	-0.156523	0.773026	-0.340970	-0.184927	0.514649	-0.341383	-0.175833	0.496645	-0.471929	-0.282294	0.369202	-0.317648	-0.300529	0.330601	-0.322166	-0.242601	0.311382	-0.319785	-0.231608	0.349779	-0.320291	-0.341842	0.136145	-0.332482	-0.304295	0.134418	-0.420545	-0.398906	0.113604	-0.380604	-0.248766	0.037811	-0.309119	-0.200756	0.051330	-0.384047	-0.175117	0.039464	-0.374946	-0.231256	0.770661	-0.745792	-0.216652	0.710915	-0.748041	-0.152650	0.720497	-0.754502	-0.159862	0.780098	-0.753636	-0.187555	0.506526	-0.736118	-0.162551	0.497609	-0.610809	-0.280304	0.350371	-0.746569	-0.291594	0.307047	-0.740054	-0.239847	0.292507	-0.737426	-0.222690	0.329276	-0.743031	-0.325715	0.127889	-0.732642	-0.305916	0.129935	-0.641061	-0.394687	0.112736	-0.685890	-0.233643	0.035557	-0.744791	-0.201282	0.047483	-0.668357	-0.177563	0.034192	-0.667699	
878	4.3900	-0.197890	1.570683	-0.546594	-0.144008	1.533490	-0.754296	-0.117173	1.508990	-0.347699	-0.078281	1.474881	-0.553393	-0.155263	1.030475	-0.438009	-0.159050	1.035624	-0.673310	-0.234597	1.092505	-0.388640	-0.239720	1.083276	-0.711588	-0.337326	1.083845	-0.501818	-0.331481	1.083445	-0.605220	-0.337720	1.082073	-0.553000	-0.228383	0.761214	-0.344730	-0.215091	0.702824	-0.340874	-0.151392	0.713645	-0.337537	-0.156481	0.775052	-0.341074	-0.185101	0.516713	-0.341600	-0.176394	0.498724	-0.472169	-0.281674	0.370727	-0.317465	-0.299741	0.332057	-0.321994	-0.241778	0.313094	-0.319908	-0.230962	0.351533	-0.320410	-0.340452	0.137415	-0.332179	-0.303187	0.135826	-0.420382	-0.397650	0.114809	-0.380267	-0.247403	0.039143	-0.309478	-0.199612	0.052796	-0.384089	-0.174012	0.041121	-0.374795	-0.231456	0.773186	-0.745909	-0.216896	0.713442	-0.748118	-0.152857	0.722961	-0.754281	-0.160021	0.782547	-0.753421	-0.188280	0.508809	-0.735894	-0.163163	0.499838	-0.610613	-0.280283	0.352084	-0.746234	-0.291359	0.308697	-0.739778	-0.239543	0.294402	-0.737259	-0.222556	0.331277	-0.742839	-0.324618	0.129391	-0.732566	-0.304605	0.131314	-0.641030	-0.393511	0.114480	-0.685584	-0.233122	0.036367	-0.744188	-0.200762	0.047902	-0.668305	-0.177198	0.034540	-0.667917	
879	4.3950	-0.197418	1.572924	-0.546242	-0.143970	1.535778	-0.754017	-0.116612	1.511088	-0.347491	-0.077918	1.477075	-0.553300	-0.155141	1.032603	-0.438053	-0.159065	1.037871	-0.673376	-0.234325	1.095164	-0.388634	-0.239983	1.085937	-0.711255	-0.336951	1.086405	-0.501619	-0.331184	1.085987	-0.605016	-0.337406	1.084642	-0.552817	-0.228350	0.763128	-0.344861	-0.215132	0.704704	-0.341150	-0.151422	0.715441	-0.337783	-0.156434	0.776863	-0.341174	-0.185226	0.518526	-0.341824	-0.176923	0.500593	-0.472406	-0.281060	0.372049	-0.317316	-0.298963	0.333316	-0.321825	-0.240983	0.314561	-0.320076	-0.230313	0.353027	-0.320585	-0.339096	0.138542	-0.331942	-0.302198	0.137125	-0.420373	-0.396489	0.115701	-0.380002	-0.245828	0.040634	-0.309809	-0.198364	0.054419	-0.384322	-0.172707	0.043034	-0.374936	-0.231641	0.775524	-0.746027	-0.217129	0.715766	-0.748186	-0.153057	0.725242	-0.754083	-0.160167	0.784814	-0.753224	-0.188946	0.510855	-0.735698	-0.163730	0.501880	-0.610433	-0.280252	0.353594	-0.745903	-0.291130	0.310155	-0.739496	-0.239251	0.296089	-0.737065	-0.222421	0.333061	-0.742636	-0.323603	0.130735	-0.732449	-0.303381	0.132564	-0.640950	-0.392429	0.115990	-0.685227	-0.232638	0.037213	-0.743603	-0.200229	0.048384	-0.668289	-0.176790	0.035011	-0.668188	
880	4.4000	-0.196938	1.574938	-0.545878	-0.143921	1.537795	-0.753738	-0.116011	1.512932	-0.347272	-0.077530	1.478999	-0.553209	-0.155073	1.034484	-0.438079	-0.159110	1.039888	-0.673430	-0.234118	1.097531	-0.388616	-0.240276	1.088330	-0.710933	-0.336635	1.088714	-0.501398	-0.330940	1.088299	-0.604777	-0.337144	1.086962	-0.552614	-0.228304	0.764817	-0.345001	-0.215144	0.706358	-0.341431	-0.151433	0.717030	-0.338026	-0.156375	0.778461	-0.341275	-0.185300	0.520094	-0.342056	-0.177403	0.502260	-0.472643	-0.280436	0.373171	-0.317208	-0.298219	0.334377	-0.321695	-0.240222	0.315816	-0.320281	-0.229665	0.354297	-0.320772	-0.337759	0.139540	-0.331820	-0.301302	0.138264	-0.420518	-0.395395	0.116278	-0.379770	-0.244022	0.042259	-0.310135	-0.196996	0.056194	-0.384734	-0.171239	0.045101	-0.375378	-0.231811	0.777664	-0.746139	-0.217353	0.717891	-0.748249	-0.153253	0.727322	-0.753907	-0.160305	0.786883	-0.753054	-0.189548	0.512647	-0.735525	-0.164263	0.503737	-0.610269	-0.280221	0.354895	-0.745584	-0.290919	0.311419	-0.739216	-0.238982	0.297562	-0.736857	-0.222300	0.334620	-0.742425	-0.322683	0.131909	-0.732301	-0.302272	0.133695	-0.640828	-0.391450	0.117250	-0.684832	-0.232184	0.038082	-0.743040	-0.199673	0.048957	-0.668298	-0.176324	0.035611	-0.668482	
881	4.4050	-0.196400	1.576685	-0.545512	-0.143862	1.539527	-0.753456	-0.115371	1.514509	-0.347046	-0.077115	1.480644	-0.553118	-0.155054	1.036114	-0.438091	-0.159181	1.041662	-0.673473	-0.233970	1.099583	-0.388588	-0.240594	1.090451	-0.710623	-0.336380	1.090751	-0.501167	-0.330751	1.090374	-0.604508	-0.336933	1.089020	-0.552381	-0.228240	0.766280	-0.345145	-0.215124	0.707787	-0.341709	-0.151417	0.718416	-0.338269	-0.156299	0.779858	-0.341386	-0.185317	0.521437	-0.342290	-0.177831	0.503723	-0.472874	-0.279826	0.374120	-0.317134	-0.297516	0.335282	-0.321597	-0.239493	0.316872	-0.320514	-0.229026	0.355358	-0.320975	-0.336439	0.140365	-0.331810	-0.300531	0.139302	-0.420778	-0.394338	0.116555	-0.379560	-0.242012	0.043967	-0.310488	-0.195529	0.058034	-0.385308	-0.169615	0.047240	-0.376053	-0.231969	0.779606	-0.746241	-0.217568	0.719809	-0.748301	-0.153445	0.729187	-0.753753	-0.160433	0.788740	-0.752917	-0.190079	0.514184	-0.735373	-0.164778	0.505405	-0.610113	-0.280200	0.355986	-0.745283	-0.290739	0.312488	-0.738944	-0.238754	0.298819	-0.736646	-0.222204	0.335948	-0.742213	-0.321878	0.132901	-0.732135	-0.301294	0.134689	-0.640677	-0.390592	0.118245	-0.684429	-0.231738	0.038970	-0.742498	-0.199085	0.049642	-0.668316	-0.175803	0.036362	-0.668766	
882	4.4100	-0.195805	1.578159	-0.545152	-0.143794	1.540966	-0.753170	-0.114685	1.515814	-0.346812	-0.076672	1.482014	-0.553030	-0.155076	1.037487	-0.438090	-0.159279	1.043191	-0.673501	-0.233867	1.101306	-0.388542	-0.240919	1.092301	-0.710330	-0.336186	1.092510	-0.500930	-0.330618	1.092195	-0.604212	-0.336776	1.090808	-0.552132	-0.228155	0.767525	-0.345288	-0.215067	0.709007	-0.341972	-0.151365	0.719601	-0.338512	-0.156203	0.781048	-0.341508	-0.185261	0.522563	-0.342530	-0.178185	0.505003	-0.473120	-0.279211	0.374909	-0.317088	-0.296837	0.336050	-0.321540	-0.238785	0.317755	-0.320769	-0.228360	0.356212	-0.321209	-0.335123	0.140943	-0.331958	-0.299847	0.140202	-0.421156	-0.393295	0.116597	-0.379387	-0.239873	0.045676	-0.310908	-0.193991	0.059835	-0.385999	-0.167892	0.049336	-0.376879	-0.232113	0.781331	-0.746329	-0.217785	0.721501	-0.748331	-0.153636	0.730821	-0.753627	-0.160550	0.790370	-0.752813	-0.190539	0.515471	-0.735238	-0.165287	0.506874	-0.609958	-0.280198	0.356881	-0.745004	-0.290604	0.313364	-0.738689	-0.238572	0.299868	-0.736449	-0.222144	0.337045	-0.742009	-0.321198	0.133697	-0.731954	-0.300484	0.135549	-0.640517	-0.389865	0.118974	-0.684039	-0.231271	0.039837	-0.741981	-0.198465	0.050435	-0.668326	-0.175229	0.037264	-0.668996	
883	4.4150	-0.195164	1.579352	-0.544796	-0.143706	1.542119	-0.752881	-0.113965	1.516837	-0.346574	-0.076201	1.483105	-0.552945	-0.155129	1.038602	-0.438078	-0.159401	1.044464	-0.673509	-0.233798	1.102692	-0.388483	-0.241222	1.093869	-0.710058	-0.336053	1.093986	-0.500700	-0.330533	1.093740	-0.603911	-0.336673	1.092320	-0.551884	-0.228047	0.768552	-0.345424	-0.214968	0.710021	-0.342212	-0.151267	0.720584	-0.338756	-0.156082	0.782036	-0.341651	-0.185119	0.523487	-0.342781	-0.178466	0.506092	-0.473372	-0.278581	0.375540	-0.317083	-0.296122	0.336691	-0.321489	-0.238084	0.318471	-0.321050	-0.227661	0.356914	-0.321448	-0.333740	0.141429	-0.332131	-0.299163	0.140988	-0.421607	-0.392264	0.116497	-0.379276	-0.237725	0.047269	-0.311388	-0.192440	0.061494	-0.386741	-0.166168	0.051234	-0.377763	-0.232241	0.782830	-0.746401	-0.218001	0.722967	-0.748346	-0.153821	0.732206	-0.753523	-0.160652	0.791764	-0.752742	-0.190928	0.516516	-0.735124	-0.165790	0.508139	-0.609812	-0.280239	0.357601	-0.744783	-0.290527	0.314058	-0.738462	-0.238451	0.300717	-0.736274	-0.222131	0.337916	-0.741825	-0.320638	0.134304	-0.731761	-0.299849	0.136273	-0.640341	-0.389278	0.119419	-0.683692	-0.230747	0.040683	-0.741483	-0.197824	0.051341	-0.668289	-0.174600	0.038304	-0.669119	
